<svg xmlns="http://www.w3.org/2000/svg" xmlns:xlink="http://www.w3.org/1999/xlink" width="512" zoomAndPan="magnify" viewBox="0 0 384 383.999986" height="512" preserveAspectRatio="xMidYMid meet" version="1.0"><defs><g/><clipPath id="466e3c137c"><path d="M 3.253906 3.253906 L 380.746094 3.253906 L 380.746094 380.746094 L 3.253906 380.746094 Z M 3.253906 3.253906 " clip-rule="nonzero"/></clipPath><clipPath id="dbc79599d3"><path d="M 192 3.253906 C 87.757812 3.253906 3.253906 87.757812 3.253906 192 C 3.253906 296.242188 87.757812 380.746094 192 380.746094 C 296.242188 380.746094 380.746094 296.242188 380.746094 192 C 380.746094 87.757812 296.242188 3.253906 192 3.253906 Z M 192 3.253906 " clip-rule="nonzero"/></clipPath><clipPath id="3b67c1c849"><path d="M 0.253906 0.253906 L 377.746094 0.253906 L 377.746094 377.746094 L 0.253906 377.746094 Z M 0.253906 0.253906 " clip-rule="nonzero"/></clipPath><clipPath id="e173cd3d8f"><path d="M 189 0.253906 C 84.757812 0.253906 0.253906 84.757812 0.253906 189 C 0.253906 293.242188 84.757812 377.746094 189 377.746094 C 293.242188 377.746094 377.746094 293.242188 377.746094 189 C 377.746094 84.757812 293.242188 0.253906 189 0.253906 Z M 189 0.253906 " clip-rule="nonzero"/></clipPath><clipPath id="730eb7deb1"><rect x="0" width="378" y="0" height="378"/></clipPath><clipPath id="8ce01c1850"><path d="M 149.339844 149.339844 L 234.660156 149.339844 L 234.660156 234.660156 L 149.339844 234.660156 Z M 149.339844 149.339844 " clip-rule="nonzero"/></clipPath><clipPath id="1bf9dee517"><path d="M 192 149.339844 C 168.441406 149.339844 149.339844 168.441406 149.339844 192 C 149.339844 215.558594 168.441406 234.660156 192 234.660156 C 215.558594 234.660156 234.660156 215.558594 234.660156 192 C 234.660156 168.441406 215.558594 149.339844 192 149.339844 Z M 192 149.339844 " clip-rule="nonzero"/></clipPath><clipPath id="cec20bfa6b"><path d="M 0.339844 0.339844 L 85.660156 0.339844 L 85.660156 85.660156 L 0.339844 85.660156 Z M 0.339844 0.339844 " clip-rule="nonzero"/></clipPath><clipPath id="3133ba06ca"><path d="M 43 0.339844 C 19.441406 0.339844 0.339844 19.441406 0.339844 43 C 0.339844 66.558594 19.441406 85.660156 43 85.660156 C 66.558594 85.660156 85.660156 66.558594 85.660156 43 C 85.660156 19.441406 66.558594 0.339844 43 0.339844 Z M 43 0.339844 " clip-rule="nonzero"/></clipPath><clipPath id="06873b5188"><rect x="0" width="86" y="0" height="86"/></clipPath></defs><g clip-path="url(#466e3c137c)"><g clip-path="url(#dbc79599d3)"><g transform="matrix(1, 0, 0, 1, 3, 3)"><g clip-path="url(#730eb7deb1)"><g clip-path="url(#3b67c1c849)"><g clip-path="url(#e173cd3d8f)"><path fill="#000000" d="M 0.253906 0.253906 L 377.746094 0.253906 L 377.746094 377.746094 L 0.253906 377.746094 Z M 0.253906 0.253906 " fill-opacity="1" fill-rule="nonzero"/></g></g></g></g></g></g><g fill="#ff0000" fill-opacity="1"><g transform="translate(15.672093, 206.456381)"><g><path d="M 120.125 12.171875 L 4.6875 -19.65625 L 14.96875 -57.09375 L 14.96875 -147.890625 L 4.6875 -150.703125 L 16.84375 -196.25 L 65.828125 -182.828125 L 62.09375 -169.421875 L 62.09375 -52.734375 L 82.375 -47.109375 L 85.171875 -57.09375 L 85.171875 -147.890625 L 74.875 -150.703125 L 87.046875 -196.25 L 136.03125 -182.828125 L 132.28125 -169.421875 L 132.28125 -52.734375 L 155.375 -46.484375 L 155.375 -132.90625 L 141.953125 -182.828125 L 187.828125 -195.3125 L 202.484375 -138.84375 L 202.484375 -33.390625 L 190.015625 11.859375 L 125.109375 -5.921875 Z M 120.125 12.171875 "/></g></g></g><g fill="#00fff0" fill-opacity="1"><g transform="translate(369.135652, 154.199052)"><g><path d="M -120.125 -12.171875 L -4.6875 19.65625 L -14.96875 57.09375 L -14.96875 147.890625 L -4.6875 150.703125 L -16.84375 196.25 L -65.828125 182.828125 L -62.09375 169.421875 L -62.09375 52.734375 L -82.375 47.109375 L -85.171875 57.09375 L -85.171875 147.890625 L -74.875 150.703125 L -87.046875 196.25 L -136.03125 182.828125 L -132.28125 169.421875 L -132.28125 52.734375 L -155.375 46.484375 L -155.375 132.90625 L -141.953125 182.828125 L -187.828125 195.3125 L -202.484375 138.84375 L -202.484375 33.390625 L -190.015625 -11.859375 L -125.109375 5.921875 Z M -120.125 -12.171875 "/></g></g></g><g clip-path="url(#8ce01c1850)"><g clip-path="url(#1bf9dee517)"><g transform="matrix(1, 0, 0, 1, 149, 149)"><g clip-path="url(#06873b5188)"><g clip-path="url(#cec20bfa6b)"><g clip-path="url(#3133ba06ca)"><path fill="#ffffff" d="M 0.339844 0.339844 L 85.660156 0.339844 L 85.660156 85.660156 L 0.339844 85.660156 Z M 0.339844 0.339844 " fill-opacity="1" fill-rule="nonzero"/></g></g></g></g></g></g></svg>